<svg width="136" height="24" viewBox="0 0 136 24" fill="none" xmlns="http://www.w3.org/2000/svg">
    <path d="M39.3481 10.8281V5.31738H37.3794V18H39.3481V12.3662H39.8052L45.0259 18H47.522L41.4751 11.4609L47.0649 5.31738H44.7358L39.7964 10.8281H39.3481ZM52.4682 18.1846C55.2631 18.1846 56.977 16.3125 56.977 13.2275C56.977 10.1426 55.2543 8.27051 52.4682 8.27051C49.6733 8.27051 47.9506 10.1514 47.9506 13.2275C47.9506 16.3125 49.6645 18.1846 52.4682 18.1846ZM52.4682 16.5762C50.8246 16.5762 49.9018 15.3545 49.9018 13.2275C49.9018 11.1006 50.8246 9.87012 52.4682 9.87012C54.103 9.87012 55.0346 11.1006 55.0346 13.2275C55.0346 15.3457 54.103 16.5762 52.4682 16.5762ZM61.6068 13.6758L61.8705 9.9668H64.9027V18H66.7924V8.45508H60.2006L59.8666 13.5967C59.7523 15.2754 59.4183 16.3828 58.4867 16.3828C58.2494 16.3828 58.0648 16.3389 57.9769 16.3125V17.9912C58.0912 18.0352 58.3109 18.0879 58.6273 18.0879C60.7455 18.0879 61.4222 16.374 61.6068 13.6758ZM71.9583 13.6758L72.222 9.9668H75.2542V18H77.1439V8.45508H70.5521L70.2181 13.5967C70.1038 15.2754 69.7698 16.3828 68.8382 16.3828C68.6009 16.3828 68.4163 16.3389 68.3284 16.3125V17.9912C68.4427 18.0352 68.6624 18.0879 68.9788 18.0879C71.097 18.0879 71.7737 16.374 71.9583 13.6758ZM86.0012 15.4424C85.6497 16.2158 84.8674 16.6377 83.7248 16.6377C82.2131 16.6377 81.2375 15.5479 81.176 13.8164V13.7285H87.9348V13.0781C87.9348 10.0898 86.3264 8.27051 83.6633 8.27051C80.9651 8.27051 79.2512 10.2129 79.2512 13.2451C79.2512 16.2949 80.9299 18.1846 83.6721 18.1846C85.8606 18.1846 87.4075 17.1299 87.8205 15.4424H86.0012ZM83.6545 9.80859C85.052 9.80859 85.9661 10.8193 86.01 12.3662H81.176C81.2815 10.8281 82.2571 9.80859 83.6545 9.80859ZM92.424 13.7812L95.8429 18H98.1984L93.9709 12.9023L98.0226 8.45508H95.799L92.4152 12.3574H91.923V8.45508H90.0334V18H91.923V13.7812H92.424ZM109.35 20.5049V16.4883H107.856V8.45508H105.966V16.4883H101.765V8.45508H99.8751V18H107.592V20.5049H109.35ZM112.802 18L117.17 11.2764H117.319V18H119.191V8.45508H117.319L112.951 15.1523H112.802V8.45508H110.93V18H112.802ZM126.95 18H128.813V8.45508H125.14C122.934 8.45508 121.492 9.67676 121.492 11.6631C121.492 12.9727 122.301 13.9922 123.619 14.3701L121.009 18H123.206L125.526 14.6953H126.95V18ZM125.236 13.2363C124.103 13.2363 123.364 12.5771 123.364 11.6455C123.364 10.5996 124.094 9.95801 125.236 9.95801H126.95V13.2363H125.236Z" fill="black"/>
    <path d="M9.13274 9.13274C9.55752 8.70796 9.87611 8.0708 9.87611 7.43363C9.87611 6.90265 9.66372 6.37168 9.34513 5.84071C7.75221 6.47788 6.47788 7.75221 5.84071 9.34513C6.26549 9.66372 6.79646 9.87611 7.43363 9.87611C8.0708 9.87611 8.70796 9.55752 9.13274 9.13274Z" fill="#002DFF"/>
    <path d="M9.13274 14.9735C8.70796 14.5487 8.0708 14.2301 7.32743 14.2301C6.79646 14.2301 6.26549 14.4425 5.73451 14.7611C6.37168 16.354 7.64602 17.5221 9.23894 18.2655C9.55752 17.8407 9.76991 17.3097 9.76991 16.6726C9.87611 16.0354 9.55752 15.3982 9.13274 14.9735Z" fill="#002DFF"/>
    <path d="M14.9735 9.13274C15.3982 9.55752 16.0354 9.87611 16.7788 9.87611C17.3097 9.87611 17.8407 9.66372 18.3717 9.34513C17.7345 7.75221 16.4602 6.58407 14.8673 5.84071C14.5487 6.26549 14.3363 6.79646 14.3363 7.43363C14.2301 8.0708 14.4425 8.70796 14.9735 9.13274Z" fill="#002DFF"/>
    <path d="M14.9735 14.9735C14.5487 15.3982 14.2301 16.0354 14.2301 16.7788C14.2301 17.3097 14.4425 17.8407 14.7611 18.3717C16.354 17.7345 17.5221 16.4602 18.2655 14.8673C17.8407 14.5487 17.3097 14.3363 16.6726 14.3363C16.0354 14.2301 15.3982 14.4425 14.9735 14.9735Z" fill="#002DFF"/>
    <path d="M12 0C5.41593 0 0 5.41593 0 12C0 18.5841 5.41593 24 12 24C18.5841 24 24 18.5841 24 12C24 5.41593 18.6903 0 12 0ZM9.55752 18.7965C8.38938 19.9646 6.47788 19.9646 5.30973 18.7965C4.14159 17.6283 4.14159 15.7168 5.30973 14.5487C6.47788 13.3805 8.38938 13.3805 9.55752 14.5487C10.7257 15.7168 10.7257 17.6283 9.55752 18.7965ZM9.55752 9.55752C8.38938 10.7257 6.47788 10.7257 5.30973 9.55752C4.14159 8.38938 4.0354 6.47788 5.30973 5.30973C6.47788 4.14159 8.38938 4.14159 9.55752 5.30973C10.7257 6.47788 10.7257 8.38938 9.55752 9.55752ZM13.0619 13.0619C12.4248 13.6991 11.469 13.6991 10.9381 13.0619C10.3009 12.4248 10.3009 11.469 10.9381 10.9381C11.5752 10.3009 12.531 10.3009 13.0619 10.9381C13.6991 11.5752 13.6991 12.531 13.0619 13.0619ZM18.7965 18.7965C17.6283 19.9646 15.7168 19.9646 14.5487 18.7965C13.3805 17.6283 13.3805 15.7168 14.5487 14.5487C15.7168 13.3805 17.6283 13.3805 18.7965 14.5487C19.9646 15.7168 19.9646 17.6283 18.7965 18.7965ZM18.7965 9.55752C17.6283 10.7257 15.7168 10.7257 14.5487 9.55752C13.3805 8.38938 13.3805 6.47788 14.5487 5.30973C15.7168 4.14159 17.6283 4.14159 18.7965 5.30973C19.9646 6.47788 19.9646 8.38938 18.7965 9.55752Z" fill="#002DFF"/>
</svg>

