<svg width="151" height="38" viewBox="0 0 151 38" fill="none" xmlns="http://www.w3.org/2000/svg">
    <path d="M0 19C0 8.50659 8.50659 0 19 0H132C142.493 0 151 8.50659 151 19C151 29.4934 142.493 38 132 38H19C8.50659 38 0 29.4934 0 19Z" fill="#002DFF"/>
    <path d="M47.3481 17.8281V12.3174H45.3794V25H47.3481V19.3662H47.8052L53.0259 25H55.522L49.4751 18.4609L55.0649 12.3174H52.7358L47.7964 17.8281H47.3481ZM60.4682 25.1846C63.2631 25.1846 64.977 23.3125 64.977 20.2275C64.977 17.1426 63.2543 15.2705 60.4682 15.2705C57.6733 15.2705 55.9506 17.1514 55.9506 20.2275C55.9506 23.3125 57.6645 25.1846 60.4682 25.1846ZM60.4682 23.5762C58.8246 23.5762 57.9018 22.3545 57.9018 20.2275C57.9018 18.1006 58.8246 16.8701 60.4682 16.8701C62.103 16.8701 63.0346 18.1006 63.0346 20.2275C63.0346 22.3457 62.103 23.5762 60.4682 23.5762ZM69.6068 20.6758L69.8705 16.9668H72.9027V25H74.7924V15.4551H68.2006L67.8666 20.5967C67.7523 22.2754 67.4183 23.3828 66.4867 23.3828C66.2494 23.3828 66.0648 23.3389 65.9769 23.3125V24.9912C66.0912 25.0352 66.3109 25.0879 66.6273 25.0879C68.7455 25.0879 69.4222 23.374 69.6068 20.6758ZM79.9583 20.6758L80.222 16.9668H83.2542V25H85.1439V15.4551H78.5521L78.2181 20.5967C78.1038 22.2754 77.7698 23.3828 76.8382 23.3828C76.6009 23.3828 76.4163 23.3389 76.3284 23.3125V24.9912C76.4427 25.0352 76.6624 25.0879 76.9788 25.0879C79.097 25.0879 79.7737 23.374 79.9583 20.6758ZM94.0012 22.4424C93.6497 23.2158 92.8674 23.6377 91.7248 23.6377C90.2131 23.6377 89.2375 22.5479 89.176 20.8164V20.7285H95.9348V20.0781C95.9348 17.0898 94.3264 15.2705 91.6633 15.2705C88.9651 15.2705 87.2512 17.2129 87.2512 20.2451C87.2512 23.2949 88.9299 25.1846 91.6721 25.1846C93.8606 25.1846 95.4075 24.1299 95.8205 22.4424H94.0012ZM91.6545 16.8086C93.052 16.8086 93.9661 17.8193 94.01 19.3662H89.176C89.2815 17.8281 90.2571 16.8086 91.6545 16.8086ZM100.424 20.7812L103.843 25H106.198L101.971 19.9023L106.023 15.4551H103.799L100.415 19.3574H99.923V15.4551H98.0334V25H99.923V20.7812H100.424ZM117.35 27.5049V23.4883H115.856V15.4551H113.966V23.4883H109.765V15.4551H107.875V25H115.592V27.5049H117.35ZM120.802 25L125.17 18.2764H125.319V25H127.191V15.4551H125.319L120.951 22.1523H120.802V15.4551H118.93V25H120.802ZM134.95 25H136.813V15.4551H133.14C130.934 15.4551 129.492 16.6768 129.492 18.6631C129.492 19.9727 130.301 20.9922 131.619 21.3701L129.009 25H131.206L133.526 21.6953H134.95V25ZM133.236 20.2363C132.103 20.2363 131.364 19.5771 131.364 18.6455C131.364 17.5996 132.094 16.958 133.236 16.958H134.95V20.2363H133.236Z" fill="white"/>
    <path d="M17.1327 16.1327C17.5575 15.708 17.8761 15.0708 17.8761 14.4336C17.8761 13.9027 17.6637 13.3717 17.3451 12.8407C15.7522 13.4779 14.4779 14.7522 13.8407 16.3451C14.2655 16.6637 14.7965 16.8761 15.4336 16.8761C16.0708 16.8761 16.708 16.5575 17.1327 16.1327Z" fill="white"/>
    <path d="M17.1327 21.9735C16.708 21.5487 16.0708 21.2301 15.3274 21.2301C14.7965 21.2301 14.2655 21.4425 13.7345 21.7611C14.3717 23.354 15.646 24.5221 17.2389 25.2655C17.5575 24.8407 17.7699 24.3097 17.7699 23.6726C17.8761 23.0354 17.5575 22.3982 17.1327 21.9735Z" fill="white"/>
    <path d="M22.9735 16.1327C23.3982 16.5575 24.0354 16.8761 24.7788 16.8761C25.3097 16.8761 25.8407 16.6637 26.3717 16.3451C25.7345 14.7522 24.4602 13.5841 22.8673 12.8407C22.5487 13.2655 22.3363 13.7965 22.3363 14.4336C22.2301 15.0708 22.4425 15.708 22.9735 16.1327Z" fill="white"/>
    <path d="M22.9735 21.9735C22.5487 22.3982 22.2301 23.0354 22.2301 23.7788C22.2301 24.3097 22.4425 24.8407 22.7611 25.3717C24.354 24.7345 25.5221 23.4602 26.2655 21.8673C25.8407 21.5487 25.3097 21.3363 24.6726 21.3363C24.0354 21.2301 23.3982 21.4425 22.9735 21.9735Z" fill="white"/>
    <path d="M20 7C13.4159 7 8 12.4159 8 19C8 25.5841 13.4159 31 20 31C26.5841 31 32 25.5841 32 19C32 12.4159 26.6903 7 20 7ZM17.5575 25.7965C16.3894 26.9646 14.4779 26.9646 13.3097 25.7965C12.1416 24.6283 12.1416 22.7168 13.3097 21.5487C14.4779 20.3805 16.3894 20.3805 17.5575 21.5487C18.7257 22.7168 18.7257 24.6283 17.5575 25.7965ZM17.5575 16.5575C16.3894 17.7257 14.4779 17.7257 13.3097 16.5575C12.1416 15.3894 12.0354 13.4779 13.3097 12.3097C14.4779 11.1416 16.3894 11.1416 17.5575 12.3097C18.7257 13.4779 18.7257 15.3894 17.5575 16.5575ZM21.0619 20.0619C20.4248 20.6991 19.469 20.6991 18.9381 20.0619C18.3009 19.4248 18.3009 18.469 18.9381 17.9381C19.5752 17.3009 20.531 17.3009 21.0619 17.9381C21.6991 18.5752 21.6991 19.531 21.0619 20.0619ZM26.7965 25.7965C25.6283 26.9646 23.7168 26.9646 22.5487 25.7965C21.3805 24.6283 21.3805 22.7168 22.5487 21.5487C23.7168 20.3805 25.6283 20.3805 26.7965 21.5487C27.9646 22.7168 27.9646 24.6283 26.7965 25.7965ZM26.7965 16.5575C25.6283 17.7257 23.7168 17.7257 22.5487 16.5575C21.3805 15.3894 21.3805 13.4779 22.5487 12.3097C23.7168 11.1416 25.6283 11.1416 26.7965 12.3097C27.9646 13.4779 27.9646 15.3894 26.7965 16.5575Z" fill="white"/>
</svg>
